<?xml version="1.0" encoding="utf-8"?>
<!-- Generator: Adobe Illustrator 24.3.0, SVG Export Plug-In . SVG Version: 6.00 Build 0)  -->
<svg version="1.1" id="Layer_1" xmlns="http://www.w3.org/2000/svg" xmlns:xlink="http://www.w3.org/1999/xlink" x="0px" y="0px"
	 viewBox="0 0 1241.74 345.31" style="enable-background:new 0 0 1241.74 345.31;" xml:space="preserve">
<style type="text/css">
	.st0{fill:#BFDBF7;}
</style>
<g>
	<g>
		<path class="st0" d="M1232.07,329.97H9.67V15.34h1222.4V329.97z M34.35,305.28h1173.03V40.02H34.35V305.28z"/>
	</g>
</g>
<g>
	<g>
		<path class="st0" d="M203.43,83.21l-34.66,171.61h-38.12c-0.25-26.36,0.35-56.36,1.81-89.99c-2.99,14.42-9.51,44.41-19.56,89.99
			H75l7.4-171.61h29.66l-4.12,59.88l-3.99,57.88c4.8-29.96,12.44-69.21,22.9-117.76h31.7c-0.19,5.02-1.4,23.89-3.62,56.6
			l-4.64,65.29c6.84-41.54,14.66-82.17,23.48-121.89H203.43z"/>
		<path class="st0" d="M279.65,83.21l-21.06,171.61h-30.53l8.85-72.08h-9.14l-8.85,72.08h-30.53l21.06-171.61h30.53l-7.53,61.37
			h9.14l7.53-61.37H279.65z"/>
		<path class="st0" d="M291.9,83.21h50.91l-4.22,34.34h-20.38l-3.99,32.54h19.07l-4.01,32.65h-19.07l-4.63,37.73h22.41l-4.21,34.34
			h-52.94L291.9,83.21z"/>
		<path class="st0" d="M353.62,83.21h21.61c14.41,0,24.06,0.81,28.96,2.44s8.55,5.78,10.94,12.45c2.4,6.68,2.7,17.33,0.9,31.96
			c-1.64,13.36-3.88,22.33-6.71,26.92c-2.84,4.59-7.65,7.35-14.43,8.27c5.77,2.19,9.48,5.12,11.1,8.8
			c1.63,3.67,2.51,7.05,2.64,10.12s-0.65,11.54-2.35,25.39l-5.56,45.26h-28.35l7-57.03c1.13-9.18,1.33-14.87,0.61-17.06
			c-0.72-2.19-3.19-3.29-7.39-3.29l-9.5,77.38h-30.53L353.62,83.21z M380.54,112.57l-4.68,38.16c3.43,0,5.92-0.69,7.47-2.07
			s2.79-5.85,3.71-13.41l1.16-9.43c0.67-5.44,0.44-9.01-0.68-10.71C386.4,113.42,384.07,112.57,380.54,112.57z"/>
		<path class="st0" d="M433.61,83.21h50.91l-4.22,34.34h-20.38l-3.99,32.54H475l-4.01,32.65h-19.07l-4.63,37.73h22.41l-4.21,34.34
			h-52.94L433.61,83.21z"/>
		<path class="st0" d="M525.85,83.21l-21.06,171.61h-30.53l21.06-171.61H525.85z"/>
		<path class="st0" d="M596.42,135.15h-28.36l1.56-12.72c0.73-5.94,0.83-9.71,0.3-11.34c-0.53-1.62-1.63-2.44-3.33-2.44
			c-1.84,0-3.36,1.1-4.57,3.29s-2.09,5.52-2.64,9.97c-0.7,5.73-0.7,10.04,0,12.94c0.66,2.9,3.1,6.4,7.34,10.49
			c12.14,11.79,19.51,21.47,22.12,29.03c2.6,7.56,2.87,19.75,0.81,36.57c-1.5,12.23-3.59,21.24-6.25,27.03s-7.05,10.65-13.14,14.57
			c-6.09,3.92-12.86,5.88-20.3,5.88c-8.17,0-14.87-2.26-20.09-6.78c-5.22-4.52-8.3-10.28-9.23-17.28s-0.61-16.92,0.97-29.78
			l1.38-11.24h28.36l-2.56,20.88c-0.79,6.43-0.9,10.56-0.33,12.4s1.87,2.76,3.9,2.76s3.68-1.17,4.96-3.5s2.2-5.79,2.76-10.39
			c1.24-10.1,1.11-16.71-0.4-19.82c-1.55-3.11-5.68-8.3-12.37-15.58c-6.69-7.35-11.06-12.68-13.12-16s-3.54-7.91-4.44-13.78
			c-0.9-5.87-0.79-13.36,0.33-22.47c1.61-13.14,3.94-22.75,6.98-28.83s7.34-10.83,12.88-14.26c5.54-3.43,11.94-5.14,19.2-5.14
			c7.93,0,14.46,1.87,19.58,5.62s8.24,8.46,9.36,14.15s0.84,15.35-0.84,28.99L596.42,135.15z"/>
		<path class="st0" d="M709.11,83.21l-21.06,171.61h-26.69l14.18-115.85L650.7,254.82h-18.93l2.69-113.2l-13.93,113.2h-26.69
			L614.9,83.21h39.5c-0.09,10.32-0.38,22.48-0.85,36.48l-1.02,43.65l16.85-80.13H709.11z"/>
		<path class="st0" d="M786.41,83.21l-35.7,109.49l-7.62,62.11h-28.28l7.62-62.11L714.4,83.21h28.05
			c0.27,33.5-0.02,56.04-0.89,67.62c3.94-18.31,9.54-40.85,16.8-67.62H786.41z"/>
		<path class="st0" d="M885.84,83.21l-21.06,171.61h-26.69l14.18-115.85l-24.84,115.85H808.5l2.69-113.2l-13.93,113.2h-26.69
			l21.06-171.61h39.5c-0.09,10.32-0.38,22.48-0.85,36.48l-1.02,43.65l16.85-80.13H885.84z"/>
		<path class="st0" d="M955.52,183.7c-2.12,17.24-3.89,29.45-5.33,36.62s-3.98,13.73-7.63,19.66c-3.65,5.94-8.17,10.49-13.54,13.67
			c-5.37,3.18-11.37,4.77-17.99,4.77c-6.29,0-11.75-1.5-16.38-4.5c-4.63-3-8.11-7.51-10.42-13.51c-2.31-6.01-3.32-12.54-3.03-19.61
			c0.29-7.07,1.51-19.43,3.68-37.1l3.6-29.36c2.12-17.24,3.89-29.45,5.33-36.62c1.43-7.17,3.98-13.73,7.63-19.66
			c3.65-5.94,8.17-10.49,13.54-13.67c5.37-3.18,11.37-4.77,17.99-4.77c6.28,0,11.75,1.5,16.38,4.5c4.64,3,8.11,7.51,10.42,13.51
			c2.31,6.01,3.32,12.54,3.03,19.61c-0.29,7.07-1.52,19.43-3.68,37.1L955.52,183.7z M931.92,127.31c0.98-7.98,1.3-13.09,0.97-15.32
			s-1.44-3.34-3.32-3.34c-1.6,0-2.93,0.9-3.99,2.7c-1.07,1.8-2.14,7.12-3.23,15.95l-9.84,80.13c-1.22,9.96-1.7,16.11-1.43,18.44
			s1.42,3.5,3.45,3.5c2.08,0,3.57-1.34,4.48-4.03s1.98-9.08,3.22-19.19L931.92,127.31z"/>
		<path class="st0" d="M1047.41,83.21l-21.06,171.61h-26.76l-6.31-78.01l-9.58,78.01h-25.53l21.06-171.61h25.53l7.63,77.27
			l9.48-77.27L1047.41,83.21L1047.41,83.21z"/>
		<path class="st0" d="M1059.67,83.21h50.91l-4.21,34.34h-20.38l-4,32.54h19.07l-4.01,32.65h-19.07l-4.63,37.73h22.41l-4.22,34.34
			h-52.94L1059.67,83.21z"/>
		<path class="st0" d="M1186.43,83.21l-35.7,109.49l-7.62,62.11h-28.28l7.62-62.11l-8.03-109.49h28.05
			c0.27,33.5-0.02,56.04-0.89,67.62c3.94-18.31,9.54-40.85,16.8-67.62H1186.43z"/>
	</g>
</g>
</svg>
