<?xml version="1.0" encoding="utf-8"?>
<!-- Generator: Adobe Illustrator 24.3.0, SVG Export Plug-In . SVG Version: 6.00 Build 0)  -->
<svg version="1.1" id="Layer_1" xmlns="http://www.w3.org/2000/svg" xmlns:xlink="http://www.w3.org/1999/xlink" x="0px" y="0px"
	 viewBox="0 0 1261.34 364.15" style="enable-background:new 0 0 1261.34 364.15;" xml:space="preserve">
<style type="text/css">
	.st0{fill:#FFFFFF;}
	.st1{fill:none;stroke:#FFFFFF;stroke-width:25.452;stroke-miterlimit:10;}
</style>
<g>
	<path class="st0" d="M2047.73,498.32l-1.75,14.25c1.28,0,2.21-0.26,2.79-0.77c0.58-0.51,1.04-2.18,1.39-5.01l0.43-3.52
		c0.25-2.03,0.17-3.37-0.25-4C2049.92,498.63,2049.05,498.32,2047.73,498.32z"/>
	<path class="st0" d="M2252.8,496.85c-0.6,0-1.09,0.34-1.49,1.01c-0.4,0.67-0.8,2.66-1.21,5.96l-3.67,29.93
		c-0.46,3.72-0.63,6.02-0.53,6.89c0.1,0.87,0.53,1.31,1.29,1.31c0.78,0,1.33-0.5,1.67-1.5c0.34-1,0.74-3.39,1.2-7.17l3.62-29.46
		c0.37-2.98,0.49-4.89,0.36-5.72C2253.92,497.27,2253.51,496.85,2252.8,496.85z"/>
	<path class="st0" d="M2350.09,471.22H1924.9c-3.58,0-6.48,2.9-6.48,6.48v86.12c0,3.58,2.9,6.48,6.48,6.48h425.19
		c3.58,0,6.48-2.9,6.48-6.48V477.7C2356.57,474.12,2353.67,471.22,2350.09,471.22z M1954.39,551.45
		c-0.09-9.85,0.13-21.05,0.67-33.61c-1.12,5.39-3.55,16.59-7.31,33.61h-14.16l2.76-64.1h11.08l-1.54,22.36l-1.49,21.62
		c1.79-11.19,4.64-25.85,8.55-43.99h11.84c-0.07,1.87-0.52,8.92-1.35,21.14l-1.73,24.39c2.55-15.52,5.48-30.69,8.77-45.53h11.08
		l-12.95,64.1H1954.39z M1990.77,551.45l3.3-26.92h-3.41l-3.3,26.92h-11.4l7.87-64.1h11.4l-2.81,22.92h3.41l2.81-22.92h11.4
		l-7.87,64.1H1990.77z M2028.1,538.62l-1.57,12.83h-19.77l7.87-64.1h19.02l-1.57,12.83h-7.61l-1.49,12.15h7.12l-1.5,12.19h-7.12
		l-1.73,14.09H2028.1z M2057.24,521.28c0.61,1.37,0.94,2.63,0.99,3.78c0.05,1.15-0.24,4.31-0.88,9.48l-2.08,16.91h-10.59l2.61-21.3
		c0.42-3.43,0.5-5.56,0.23-6.37c-0.27-0.82-1.19-1.23-2.76-1.23l-3.55,28.9h-11.4l7.87-64.1h8.07c5.38,0,8.99,0.3,10.82,0.91
		c1.83,0.61,3.19,2.16,4.09,4.65c0.89,2.49,1.01,6.47,0.34,11.94c-0.61,4.99-1.45,8.34-2.51,10.06c-1.06,1.72-2.86,2.75-5.39,3.09
		C2055.25,518.81,2056.63,519.91,2057.24,521.28z M2081.03,538.62l-1.57,12.83h-19.77l7.87-64.1h19.02l-1.57,12.83h-7.61
		l-1.49,12.15h7.12l-1.5,12.19h-7.12l-1.73,14.09H2081.03z M2082.73,551.45l7.87-64.1h11.4l-7.87,64.1H2082.73z M2125.84,535.06
		c-0.56,4.57-1.34,7.93-2.34,10.1c-1,2.16-2.63,3.98-4.91,5.44c-2.28,1.46-4.8,2.2-7.58,2.2c-3.05,0-5.55-0.84-7.5-2.53
		c-1.95-1.69-3.1-3.84-3.45-6.45c-0.35-2.61-0.23-6.32,0.36-11.12l0.52-4.2h10.59l-0.96,7.8c-0.29,2.4-0.34,3.95-0.12,4.63
		c0.21,0.69,0.7,1.03,1.46,1.03c0.76,0,1.38-0.44,1.85-1.31c0.48-0.87,0.82-2.16,1.03-3.88c0.46-3.77,0.41-6.24-0.15-7.4
		c-0.58-1.16-2.12-3.1-4.62-5.82c-2.5-2.74-4.13-4.74-4.9-5.98c-0.77-1.24-1.32-2.96-1.66-5.15c-0.34-2.19-0.29-4.99,0.12-8.39
		c0.6-4.91,1.47-8.5,2.61-10.77c1.14-2.27,2.74-4.04,4.81-5.33c2.07-1.28,4.46-1.92,7.17-1.92c2.96,0,5.4,0.7,7.31,2.1
		c1.91,1.4,3.08,3.16,3.5,5.29c0.42,2.12,0.31,5.73-0.31,10.83l-0.31,2.53h-10.59l0.58-4.75c0.27-2.22,0.31-3.63,0.11-4.24
		c-0.2-0.61-0.61-0.91-1.24-0.91c-0.69,0-1.26,0.41-1.71,1.23c-0.45,0.82-0.78,2.06-0.99,3.72c-0.26,2.14-0.26,3.75,0,4.83
		c0.25,1.08,1.16,2.39,2.74,3.92c4.54,4.4,7.29,8.02,8.26,10.84C2126.51,524.22,2126.61,528.78,2125.84,535.06z M2162.59,551.45
		h-9.97l5.3-43.27l-9.28,43.27h-7.07l1.01-42.28l-5.2,42.28h-9.97l7.87-64.1h14.76c-0.04,3.85-0.14,8.4-0.32,13.63l-0.38,16.3
		l6.29-29.93h14.84L2162.59,551.45z M2183.15,551.45h-10.56l2.85-23.2l-3-40.9h10.48c0.1,12.51-0.01,20.93-0.33,25.26
		c1.47-6.84,3.56-15.26,6.28-25.26h10.48l-13.34,40.9L2183.15,551.45z M2218.63,551.45l5.3-43.27l-9.28,43.27h-7.07l1.01-42.28
		l-5.2,42.28h-9.97l7.87-64.1h14.76c-0.04,3.85-0.14,8.4-0.32,13.63l-0.38,16.3l6.29-29.93h14.84l-7.87,64.1H2218.63z
		 M2260.51,538.56c-0.54,2.68-1.49,5.13-2.85,7.34c-1.36,2.22-3.05,3.92-5.06,5.11c-2.01,1.19-4.25,1.78-6.72,1.78
		c-2.35,0-4.39-0.56-6.12-1.68c-1.73-1.12-3.03-2.8-3.89-5.05c-0.86-2.24-1.24-4.69-1.13-7.32c0.11-2.64,0.57-7.26,1.38-13.86
		l1.35-10.97c0.79-6.44,1.45-11,1.99-13.68c0.54-2.68,1.49-5.13,2.85-7.34c1.36-2.22,3.05-3.92,5.06-5.11
		c2.01-1.19,4.25-1.78,6.72-1.78c2.35,0,4.39,0.56,6.12,1.68c1.73,1.12,3.03,2.8,3.89,5.05c0.86,2.24,1.24,4.69,1.13,7.32
		c-0.11,2.64-0.57,7.26-1.38,13.86l-1.35,10.97C2261.71,531.32,2261.04,535.88,2260.51,538.56z M2278.96,551.45l-2.36-29.14
		l-3.58,29.14h-9.54l7.87-64.1h9.53l2.85,28.86l3.54-28.86h9.53l-7.87,64.1H2278.96z M2318.84,500.18h-7.61l-1.49,12.15h7.12
		l-1.5,12.19h-7.12l-1.73,14.09h8.37l-1.57,12.83h-19.77l7.87-64.1h19.02L2318.84,500.18z M2335.41,528.25l-2.85,23.2H2322
		l2.85-23.2l-3-40.9h10.48c0.1,12.51-0.01,20.93-0.33,25.26c1.47-6.84,3.56-15.26,6.28-25.26h10.48L2335.41,528.25z"/>
</g>
<g>
	<g>
		<g>
			<path class="st1" d="M71.5,315.05h1118.34c15.95,0,28.88-12.93,28.88-28.88V77.97c0-15.95-12.93-28.88-28.88-28.88H71.5
				c-15.95,0-28.88,12.93-28.88,28.88v208.21C42.63,302.13,55.55,315.05,71.5,315.05z"/>
		</g>
	</g>
	<g>
		<g>
			<path class="st0" d="M202.27,92.4l-34.75,172.05H129.3c-0.25-26.43,0.35-56.51,1.81-90.22c-3,14.46-9.53,44.53-19.61,90.22h-38
				L80.92,92.4h29.74l-4.13,60.03l-4,58.04c4.82-30.03,12.47-69.39,22.96-118.07h31.79c-0.19,5.03-1.4,23.95-3.63,56.75l-4.65,65.46
				c6.85-41.65,14.7-82.38,23.55-122.21H202.27z"/>
			<path class="st0" d="M278.69,92.4l-21.12,172.05h-30.61l8.87-72.26h-9.16l-8.87,72.26h-30.61L208.3,92.4h30.61l-7.55,61.53h9.16
				l7.55-61.53H278.69z"/>
			<path class="st0" d="M290.97,92.4h51.04l-4.23,34.43h-20.43l-4,32.63h19.12l-4.02,32.73h-19.12l-4.64,37.83h22.47l-4.23,34.43
				h-53.08L290.97,92.4z"/>
			<path class="st0" d="M352.85,92.4h21.67c14.44,0,24.12,0.82,29.04,2.44c4.91,1.63,8.57,5.79,10.97,12.49
				c2.4,6.7,2.7,17.38,0.9,32.04c-1.64,13.39-3.89,22.39-6.73,26.99c-2.84,4.61-7.67,7.37-14.47,8.29c5.79,2.2,9.5,5.14,11.13,8.82
				c1.63,3.68,2.51,7.07,2.64,10.15c0.13,3.08-0.66,11.57-2.36,25.45l-5.57,45.38h-28.43l7.02-57.17
				c1.13-9.21,1.33-14.91,0.61-17.11c-0.72-2.2-3.19-3.29-7.41-3.29l-9.52,77.58h-30.61L352.85,92.4z M379.85,121.84l-4.7,38.26
				c3.44,0,5.94-0.69,7.49-2.07c1.55-1.38,2.79-5.86,3.72-13.44l1.16-9.46c0.67-5.45,0.44-9.03-0.68-10.73
				C385.72,122.69,383.39,121.84,379.85,121.84z"/>
			<path class="st0" d="M433.05,92.4h51.04l-4.23,34.43h-20.43l-4,32.63h19.12l-4.02,32.73h-19.12l-4.64,37.83h22.47l-4.23,34.43
				h-53.08L433.05,92.4z"/>
			<path class="st0" d="M525.53,92.4l-21.12,172.05H473.8L494.92,92.4H525.53z"/>
			<path class="st0" d="M596.29,144.48h-28.43l1.56-12.75c0.73-5.95,0.83-9.74,0.31-11.37c-0.53-1.63-1.64-2.44-3.33-2.44
				c-1.84,0-3.37,1.1-4.59,3.3c-1.21,2.2-2.1,5.53-2.64,10c-0.7,5.74-0.7,10.07,0,12.97c0.66,2.91,3.11,6.41,7.36,10.52
				c12.18,11.82,19.57,21.52,22.17,29.1c2.61,7.58,2.88,19.8,0.81,36.66c-1.5,12.26-3.6,21.29-6.27,27.1
				c-2.68,5.81-7.07,10.68-13.17,14.61c-6.11,3.93-12.89,5.9-20.35,5.9c-8.19,0-14.91-2.27-20.14-6.8
				c-5.24-4.53-8.32-10.31-9.25-17.32c-0.93-7.01-0.61-16.97,0.98-29.86l1.38-11.26h28.43l-2.57,20.94
				c-0.79,6.45-0.9,10.59-0.33,12.43c0.57,1.84,1.88,2.76,3.91,2.76c2.04,0,3.69-1.17,4.98-3.51c1.28-2.34,2.2-5.81,2.77-10.41
				c1.24-10.13,1.11-16.75-0.4-19.87c-1.56-3.12-5.69-8.33-12.41-15.62c-6.71-7.37-11.09-12.72-13.16-16.05
				c-2.06-3.33-3.55-7.93-4.45-13.82c-0.9-5.88-0.79-13.39,0.33-22.53c1.62-13.18,3.95-22.81,7-28.91
				c3.05-6.09,7.36-10.86,12.92-14.29c5.56-3.44,11.98-5.15,19.25-5.15c7.95,0,14.49,1.88,19.63,5.63
				c5.14,3.76,8.27,8.49,9.38,14.19c1.12,5.7,0.84,15.39-0.84,29.06L596.29,144.48z"/>
			<path class="st0" d="M709.27,92.4l-21.12,172.05h-26.76l14.22-116.15l-24.91,116.15h-18.98l2.7-113.5l-13.97,113.5H593.7
				L614.82,92.4h39.61c-0.09,10.34-0.38,22.54-0.86,36.58l-1.03,43.76l16.9-80.34H709.27z"/>
			<path class="st0" d="M786.78,92.4l-35.8,109.78l-7.64,62.28h-28.36l7.64-62.28L714.58,92.4h28.12
				c0.27,33.58-0.02,56.18-0.89,67.8c3.95-18.36,9.56-40.96,16.85-67.8H786.78z"/>
			<path class="st0" d="M886.46,92.4l-21.12,172.05h-26.76l14.22-116.15L827.9,264.46h-18.98l2.7-113.5l-13.97,113.5h-26.76
				L792.01,92.4h39.61c-0.09,10.34-0.38,22.54-0.86,36.58l-1.03,43.76l16.9-80.34H886.46z"/>
			<path class="st0" d="M956.33,193.15c-2.12,17.29-3.9,29.53-5.34,36.72c-1.44,7.19-3.99,13.76-7.65,19.71
				c-3.66,5.95-8.19,10.52-13.57,13.71c-5.39,3.19-11.4,4.78-18.04,4.78c-6.3,0-11.78-1.51-16.42-4.52
				c-4.65-3.01-8.13-7.53-10.44-13.55c-2.31-6.02-3.33-12.58-3.04-19.66c0.29-7.08,1.52-19.48,3.69-37.2l3.61-29.44
				c2.12-17.29,3.9-29.53,5.34-36.72c1.44-7.19,3.99-13.76,7.65-19.71c3.66-5.95,8.19-10.52,13.57-13.71
				c5.38-3.19,11.39-4.78,18.04-4.78c6.3,0,11.78,1.51,16.42,4.52c4.65,3.01,8.13,7.53,10.44,13.55c2.31,6.02,3.33,12.58,3.04,19.66
				c-0.29,7.09-1.52,19.48-3.69,37.2L956.33,193.15z M932.66,136.61c0.98-8,1.31-13.12,0.98-15.36c-0.33-2.23-1.44-3.35-3.33-3.35
				c-1.6,0-2.94,0.9-4,2.71c-1.07,1.81-2.15,7.14-3.24,15.99l-9.86,80.34c-1.23,9.99-1.7,16.15-1.43,18.49
				c0.27,2.34,1.42,3.51,3.46,3.51c2.08,0,3.58-1.35,4.5-4.04c0.91-2.69,1.99-9.1,3.23-19.24L932.66,136.61z"/>
			<path class="st0" d="M1048.46,92.4l-21.12,172.05h-26.83l-6.32-78.22l-9.6,78.22h-25.59L980.11,92.4h25.59l7.65,77.47l9.51-77.47
				H1048.46z"/>
			<path class="st0" d="M1060.74,92.4h51.04l-4.23,34.43h-20.43l-4.01,32.63h19.12l-4.02,32.73h-19.12l-4.64,37.83h22.47
				l-4.23,34.43h-53.08L1060.74,92.4z"/>
			<path class="st0" d="M1187.84,92.4l-35.8,109.78l-7.64,62.28h-28.36l7.64-62.28l-8.05-109.78h28.12
				c0.27,33.58-0.02,56.18-0.89,67.8c3.95-18.36,9.56-40.96,16.85-67.8H1187.84z"/>
		</g>
	</g>
</g>
</svg>
